<svg xmlns="http://www.w3.org/2000/svg" width="800" height="800" viewBox="0 0 800 800">
  <rect width="800" height="800" fill="white"/>
  <text x="400" y="20" text-anchor="middle" font-family="sans-serif" font-size="12" fill="#999">2D Character Parts — Grid Catalog</text>
  <rect x="540" y="220" width="210" height="140" fill="#eef6ff" stroke="#4a90d9" stroke-width="2" rx="4" ry="4"/>
  <text x="645" y="282" text-anchor="middle" font-family="sans-serif" font-size="11" fill="#4a90d9">Global Reference 全局参考 (9:16)</text>
  <text x="645" y="300" text-anchor="middle" font-family="sans-serif" font-size="9" fill="#888">9:16</text>
  <rect x="522" y="48" width="236" height="155" rx="5" ry="5" fill="none" stroke="#aaa" stroke-width="1" stroke-dasharray="5,3"/>
  <text x="530" y="60" font-family="sans-serif" font-size="10" fill="#888">表情组件 Expressions</text>
  <rect x="22" y="378" width="576" height="190" rx="5" ry="5" fill="none" stroke="#aaa" stroke-width="1" stroke-dasharray="5,3"/>
  <text x="30" y="390" font-family="sans-serif" font-size="10" fill="#888">上肢 Upper Limbs</text>
  <rect x="22" y="588" width="636" height="185" rx="5" ry="5" fill="none" stroke="#aaa" stroke-width="1" stroke-dasharray="5,3"/>
  <text x="30" y="600" font-family="sans-serif" font-size="10" fill="#888">下肢 Lower Limbs</text>
  <line x1="30" y1="40" x2="210" y2="210" stroke="#ddd" stroke-width="0.8" stroke-dasharray="3,3"/>
  <line x1="210" y1="40" x2="30" y2="210" stroke="#ddd" stroke-width="0.8" stroke-dasharray="3,3"/>
  <rect x="30" y="40" width="180" height="170" fill="#f7f7f7" stroke="#333" stroke-width="1.5"/>
  <text x="120" y="125" text-anchor="middle" font-family="SimSun, serif" font-size="10" fill="#333">头部 Head</text>
  <line x1="230" y1="40" x2="490" y2="380" stroke="#ddd" stroke-width="0.8" stroke-dasharray="3,3"/>
  <line x1="490" y1="40" x2="230" y2="380" stroke="#ddd" stroke-width="0.8" stroke-dasharray="3,3"/>
  <rect x="230" y="40" width="260" height="340" fill="#f7f7f7" stroke="#333" stroke-width="1.5"/>
  <text x="360" y="210" text-anchor="middle" font-family="SimSun, serif" font-size="10" fill="#333">躯干 Torso</text>
  <line x1="530" y1="70" x2="635" y2="125" stroke="#ddd" stroke-width="0.8" stroke-dasharray="3,3"/>
  <line x1="635" y1="70" x2="530" y2="125" stroke="#ddd" stroke-width="0.8" stroke-dasharray="3,3"/>
  <rect x="530" y="70" width="105" height="55" fill="#f7f7f7" stroke="#333" stroke-width="1.5"/>
  <text x="582" y="89" text-anchor="middle" font-family="SimSun, serif" font-size="10" fill="#333">开心眼</text>
  <text x="582" y="105" text-anchor="middle" font-family="SimSun, serif" font-size="10" fill="#333">Happy Eyes</text>
  <line x1="645" y1="70" x2="750" y2="125" stroke="#ddd" stroke-width="0.8" stroke-dasharray="3,3"/>
  <line x1="750" y1="70" x2="645" y2="125" stroke="#ddd" stroke-width="0.8" stroke-dasharray="3,3"/>
  <rect x="645" y="70" width="105" height="55" fill="#f7f7f7" stroke="#333" stroke-width="1.5"/>
  <text x="697" y="89" text-anchor="middle" font-family="SimSun, serif" font-size="10" fill="#333">闭眼</text>
  <text x="697" y="105" text-anchor="middle" font-family="SimSun, serif" font-size="10" fill="#333">Closed Eyes</text>
  <line x1="530" y1="140" x2="635" y2="195" stroke="#ddd" stroke-width="0.8" stroke-dasharray="3,3"/>
  <line x1="635" y1="140" x2="530" y2="195" stroke="#ddd" stroke-width="0.8" stroke-dasharray="3,3"/>
  <rect x="530" y="140" width="105" height="55" fill="#f7f7f7" stroke="#333" stroke-width="1.5"/>
  <text x="582" y="159" text-anchor="middle" font-family="SimSun, serif" font-size="10" fill="#333">微笑嘴</text>
  <text x="582" y="175" text-anchor="middle" font-family="SimSun, serif" font-size="10" fill="#333">Smile Mouth</text>
  <line x1="645" y1="140" x2="750" y2="195" stroke="#ddd" stroke-width="0.8" stroke-dasharray="3,3"/>
  <line x1="750" y1="140" x2="645" y2="195" stroke="#ddd" stroke-width="0.8" stroke-dasharray="3,3"/>
  <rect x="645" y="140" width="105" height="55" fill="#f7f7f7" stroke="#333" stroke-width="1.5"/>
  <text x="697" y="159" text-anchor="middle" font-family="SimSun, serif" font-size="10" fill="#333">惊讶嘴</text>
  <text x="697" y="175" text-anchor="middle" font-family="SimSun, serif" font-size="10" fill="#333">Surprised Mouth</text>
  <line x1="30" y1="400" x2="120" y2="560" stroke="#ddd" stroke-width="0.8" stroke-dasharray="3,3"/>
  <line x1="120" y1="400" x2="30" y2="560" stroke="#ddd" stroke-width="0.8" stroke-dasharray="3,3"/>
  <rect x="30" y="400" width="90" height="160" fill="#f7f7f7" stroke="#333" stroke-width="1.5"/>
  <text x="75" y="472" text-anchor="middle" font-family="SimSun, serif" font-size="10" fill="#333">左上臂</text>
  <text x="75" y="488" text-anchor="middle" font-family="SimSun, serif" font-size="10" fill="#333">L-Upper Arm</text>
  <line x1="135" y1="400" x2="225" y2="560" stroke="#ddd" stroke-width="0.8" stroke-dasharray="3,3"/>
  <line x1="225" y1="400" x2="135" y2="560" stroke="#ddd" stroke-width="0.8" stroke-dasharray="3,3"/>
  <rect x="135" y="400" width="90" height="160" fill="#f7f7f7" stroke="#333" stroke-width="1.5"/>
  <text x="180" y="472" text-anchor="middle" font-family="SimSun, serif" font-size="10" fill="#333">右上臂</text>
  <text x="180" y="488" text-anchor="middle" font-family="SimSun, serif" font-size="10" fill="#333">R-Upper Arm</text>
  <line x1="240" y1="400" x2="320" y2="545" stroke="#ddd" stroke-width="0.8" stroke-dasharray="3,3"/>
  <line x1="320" y1="400" x2="240" y2="545" stroke="#ddd" stroke-width="0.8" stroke-dasharray="3,3"/>
  <rect x="240" y="400" width="80" height="145" fill="#f7f7f7" stroke="#333" stroke-width="1.5"/>
  <text x="280" y="464" text-anchor="middle" font-family="SimSun, serif" font-size="10" fill="#333">左前臂</text>
  <text x="280" y="480" text-anchor="middle" font-family="SimSun, serif" font-size="10" fill="#333">L-Forearm</text>
  <line x1="335" y1="400" x2="415" y2="545" stroke="#ddd" stroke-width="0.8" stroke-dasharray="3,3"/>
  <line x1="415" y1="400" x2="335" y2="545" stroke="#ddd" stroke-width="0.8" stroke-dasharray="3,3"/>
  <rect x="335" y="400" width="80" height="145" fill="#f7f7f7" stroke="#333" stroke-width="1.5"/>
  <text x="375" y="464" text-anchor="middle" font-family="SimSun, serif" font-size="10" fill="#333">右前臂</text>
  <text x="375" y="480" text-anchor="middle" font-family="SimSun, serif" font-size="10" fill="#333">R-Forearm</text>
  <line x1="435" y1="400" x2="505" y2="470" stroke="#ddd" stroke-width="0.8" stroke-dasharray="3,3"/>
  <line x1="505" y1="400" x2="435" y2="470" stroke="#ddd" stroke-width="0.8" stroke-dasharray="3,3"/>
  <rect x="435" y="400" width="70" height="70" fill="#f7f7f7" stroke="#333" stroke-width="1.5"/>
  <text x="470" y="427" text-anchor="middle" font-family="SimSun, serif" font-size="10" fill="#333">左手</text>
  <text x="470" y="443" text-anchor="middle" font-family="SimSun, serif" font-size="10" fill="#333">L-Hand</text>
  <line x1="520" y1="400" x2="590" y2="470" stroke="#ddd" stroke-width="0.8" stroke-dasharray="3,3"/>
  <line x1="590" y1="400" x2="520" y2="470" stroke="#ddd" stroke-width="0.8" stroke-dasharray="3,3"/>
  <rect x="520" y="400" width="70" height="70" fill="#f7f7f7" stroke="#333" stroke-width="1.5"/>
  <text x="555" y="427" text-anchor="middle" font-family="SimSun, serif" font-size="10" fill="#333">右手</text>
  <text x="555" y="443" text-anchor="middle" font-family="SimSun, serif" font-size="10" fill="#333">R-Hand</text>
  <line x1="30" y1="610" x2="125" y2="765" stroke="#ddd" stroke-width="0.8" stroke-dasharray="3,3"/>
  <line x1="125" y1="610" x2="30" y2="765" stroke="#ddd" stroke-width="0.8" stroke-dasharray="3,3"/>
  <rect x="30" y="610" width="95" height="155" fill="#f7f7f7" stroke="#333" stroke-width="1.5"/>
  <text x="77" y="679" text-anchor="middle" font-family="SimSun, serif" font-size="10" fill="#333">左大腿</text>
  <text x="77" y="695" text-anchor="middle" font-family="SimSun, serif" font-size="10" fill="#333">L-Thigh</text>
  <line x1="140" y1="610" x2="235" y2="765" stroke="#ddd" stroke-width="0.8" stroke-dasharray="3,3"/>
  <line x1="235" y1="610" x2="140" y2="765" stroke="#ddd" stroke-width="0.8" stroke-dasharray="3,3"/>
  <rect x="140" y="610" width="95" height="155" fill="#f7f7f7" stroke="#333" stroke-width="1.5"/>
  <text x="187" y="679" text-anchor="middle" font-family="SimSun, serif" font-size="10" fill="#333">右大腿</text>
  <text x="187" y="695" text-anchor="middle" font-family="SimSun, serif" font-size="10" fill="#333">R-Thigh</text>
  <line x1="250" y1="610" x2="335" y2="750" stroke="#ddd" stroke-width="0.8" stroke-dasharray="3,3"/>
  <line x1="335" y1="610" x2="250" y2="750" stroke="#ddd" stroke-width="0.8" stroke-dasharray="3,3"/>
  <rect x="250" y="610" width="85" height="140" fill="#f7f7f7" stroke="#333" stroke-width="1.5"/>
  <text x="292" y="672" text-anchor="middle" font-family="SimSun, serif" font-size="10" fill="#333">左小腿</text>
  <text x="292" y="688" text-anchor="middle" font-family="SimSun, serif" font-size="10" fill="#333">L-Calf</text>
  <line x1="350" y1="610" x2="435" y2="750" stroke="#ddd" stroke-width="0.8" stroke-dasharray="3,3"/>
  <line x1="435" y1="610" x2="350" y2="750" stroke="#ddd" stroke-width="0.8" stroke-dasharray="3,3"/>
  <rect x="350" y="610" width="85" height="140" fill="#f7f7f7" stroke="#333" stroke-width="1.5"/>
  <text x="392" y="672" text-anchor="middle" font-family="SimSun, serif" font-size="10" fill="#333">右小腿</text>
  <text x="392" y="688" text-anchor="middle" font-family="SimSun, serif" font-size="10" fill="#333">R-Calf</text>
  <line x1="455" y1="610" x2="545" y2="645" stroke="#ddd" stroke-width="0.8" stroke-dasharray="3,3"/>
  <line x1="545" y1="610" x2="455" y2="645" stroke="#ddd" stroke-width="0.8" stroke-dasharray="3,3"/>
  <rect x="455" y="610" width="90" height="35" fill="#f7f7f7" stroke="#333" stroke-width="1.5"/>
  <text x="500" y="619" text-anchor="middle" font-family="SimSun, serif" font-size="10" fill="#333">左脚</text>
  <text x="500" y="635" text-anchor="middle" font-family="SimSun, serif" font-size="10" fill="#333">L-Foot</text>
  <line x1="560" y1="610" x2="650" y2="645" stroke="#ddd" stroke-width="0.8" stroke-dasharray="3,3"/>
  <line x1="650" y1="610" x2="560" y2="645" stroke="#ddd" stroke-width="0.8" stroke-dasharray="3,3"/>
  <rect x="560" y="610" width="90" height="35" fill="#f7f7f7" stroke="#333" stroke-width="1.5"/>
  <text x="605" y="619" text-anchor="middle" font-family="SimSun, serif" font-size="10" fill="#333">右脚</text>
  <text x="605" y="635" text-anchor="middle" font-family="SimSun, serif" font-size="10" fill="#333">R-Foot</text>
</svg>
